<?xml version="1.0" encoding="UTF-8" standalone="no"?>
<!-- Created with Inkscape (http://www.inkscape.org/) -->

<svg
   xmlns:dc="http://purl.org/dc/elements/1.1/"
   xmlns:cc="http://creativecommons.org/ns#"
   xmlns:rdf="http://www.w3.org/1999/02/22-rdf-syntax-ns#"
   xmlns:svg="http://www.w3.org/2000/svg"
   xmlns="http://www.w3.org/2000/svg"
   xmlns:xlink="http://www.w3.org/1999/xlink"
   xmlns:sodipodi="http://sodipodi.sourceforge.net/DTD/sodipodi-0.dtd"
   xmlns:inkscape="http://www.inkscape.org/namespaces/inkscape"
   id="svg4171"
   version="1.1"
   inkscape:version="0.91 r13725"
   width="568"
   height="210"
   viewBox="0 0 568 210"
   sodipodi:docname="dont let the sermon fail.svg">
  <metadata
     id="metadata4177">
    <rdf:RDF>
      <cc:Work
         rdf:about="">
        <dc:format>image/svg+xml</dc:format>
        <dc:type
           rdf:resource="http://purl.org/dc/dcmitype/StillImage" />
        <dc:title></dc:title>
      </cc:Work>
    </rdf:RDF>
  </metadata>
  <defs
     id="defs4175">
    <linearGradient
       inkscape:collect="always"
       id="linearGradient4969">
      <stop
         style="stop-color:#c5cdc2;stop-opacity:1;"
         offset="0"
         id="stop4971" />
      <stop
         style="stop-color:#c5cdc2;stop-opacity:0;"
         offset="1"
         id="stop4973" />
    </linearGradient>
    <inkscape:perspective
       sodipodi:type="inkscape:persp3d"
       inkscape:vp_x="0 : 172 : 1"
       inkscape:vp_y="0 : 1000 : 0"
       inkscape:vp_z="568 : 172 : 1"
       inkscape:persp3d-origin="284 : 114.66667 : 1"
       id="perspective4528" />
    <inkscape:path-effect
       effect="skeletal"
       id="path-effect4274"
       is_visible="true"
       pattern="M 0,5 C 0,2.24 2.24,0 5,0 7.76,0 10,2.24 10,5 10,7.76 7.76,10 5,10 2.24,10 0,7.76 0,5 Z"
       copytype="single_stretched"
       prop_scale="1"
       scale_y_rel="false"
       spacing="0"
       normal_offset="0"
       tang_offset="0"
       prop_units="false"
       vertical_pattern="false"
       fuse_tolerance="0" />
    <linearGradient
       inkscape:collect="always"
       xlink:href="#linearGradient4969"
       id="linearGradient4975"
       x1="166.7643"
       y1="177.33459"
       x2="571.24988"
       y2="197.26692"
       gradientUnits="userSpaceOnUse"
       gradientTransform="matrix(1.0383324,0,0,0.65240637,-9.4430534,-17.91372)" />
  </defs>
  <sodipodi:namedview
     pagecolor="#ffffff"
     bordercolor="#666666"
     borderopacity="1"
     objecttolerance="10"
     gridtolerance="10"
     guidetolerance="10"
     inkscape:pageopacity="0"
     inkscape:pageshadow="2"
     inkscape:window-width="1193"
     inkscape:window-height="741"
     id="namedview4173"
     showgrid="false"
     inkscape:zoom="1"
     inkscape:cx="288.02676"
     inkscape:cy="108.52678"
     inkscape:window-x="0"
     inkscape:window-y="1"
     inkscape:window-maximized="0"
     inkscape:current-layer="svg4171"
     showguides="true"
     inkscape:guide-bbox="true"
     borderlayer="true"
     inkscape:showpageshadow="false" />
  <rect
     y="-17.436699"
     x="-7.335556"
     height="227.83359"
     width="600.65717"
     id="rect4248"
     style="opacity:0.97000002;fill:url(#linearGradient4975);fill-opacity:1;fill-rule:evenodd;stroke:#ffffff;stroke-width:1.15856028;stroke-miterlimit:6.4000001;stroke-dasharray:none;stroke-dashoffset:0;stroke-opacity:1" />
  <path
     style="opacity:0.97000002;fill:#f70a0a;fill-opacity:0.98255914;fill-rule:evenodd;stroke:#ffffff;stroke-width:1.06572914;stroke-miterlimit:6.4000001;stroke-dasharray:none;stroke-dashoffset:0;stroke-opacity:1"
     id="path4407"
     d="m 452.36991,172.17806 c 1.06192,0.33925 1.95814,1.03103 2.76312,1.9124 0.80931,0.958 1.24962,2.01818 1.33929,3.37385 -0.007,1.03894 -0.28023,2.03119 -0.54331,3.00891 -0.15801,0.58854 -0.84826,0.31818 -0.6897,-0.27073 l 0,0 c 0.23425,-0.87103 0.48391,-1.75331 0.50964,-2.677 -0.0532,-1.09234 -0.45419,-2.0258 -1.10538,-2.79006 -0.72499,-0.80742 -1.54013,-1.42314 -2.50349,-1.72813 -0.48643,-0.19615 -0.25644,-1.0259 0.22997,-0.82973 z"
     inkscape:connector-curvature="0"
     inkscape:transform-center-x="-1.1068489"
     inkscape:transform-center-y="-2.737861" />
  <path
     style="opacity:0.97000002;fill:#f70a0a;fill-opacity:0.98255914;fill-rule:evenodd;stroke:#fff9fa;stroke-width:1.44735181;stroke-miterlimit:6.4000001;stroke-dasharray:none;stroke-dashoffset:0;stroke-opacity:1"
     id="path4409"
     d="m 503.8456,31.53176 c -0.0105,1.21493 0.0332,2.43109 -0.0405,3.64336 -0.0532,1.35108 -0.46383,2.60237 -0.86457,3.84419 -0.30836,0.72967 -0.70852,1.38987 -1.05982,2.08799 -0.36249,0.71988 -1.1973,0.0946 -0.8348,-0.62517 l 0,0 c 0.3218,-0.63865 0.67966,-1.24799 0.98306,-1.90043 0.36518,-1.13099 0.75156,-2.26641 0.79936,-3.49803 0.0773,-1.18106 0.0216,-2.36796 0.0376,-3.55191 0,-0.84479 0.97963,-0.84479 0.97963,0 z"
     inkscape:connector-curvature="0" />
  <g
     id="g4530"
     transform="matrix(1.3106244,0,0,1.598343,-13.446097,-770.61942)">
    <path
       inkscape:connector-curvature="0"
       d="m 399.04419,504.74564 c 0,0.5651 0,1.13019 0,1.69529 -0.0419,0.57736 -0.10268,1.15377 -0.27351,1.71629 -0.0892,0.24584 -0.2544,0.4562 -0.42854,0.66687 -0.27983,0.33853 -0.87617,0.0209 -0.59634,-0.3177 l 0,0 c 0.12857,-0.15553 0.25803,-0.30517 0.32969,-0.4857 0.1583,-0.51763 0.21003,-1.04849 0.25299,-1.57976 0,-0.5651 0,-1.13019 0,-1.69529 0,-0.40629 0.71571,-0.40629 0.71571,0 z"
       id="path4411"
       style="opacity:0.97000002;fill:#faf10a;fill-opacity:0.98255914;fill-rule:evenodd;stroke:#fff9fa;stroke-width:0.8579253;stroke-miterlimit:6.4000001;stroke-dasharray:none;stroke-dashoffset:0;stroke-opacity:1" />
  </g>
  <g
     id="g4390">
    <path
       style="opacity:0.97000002;fill:#c5cdc2;fill-opacity:0.98255914;fill-rule:evenodd;stroke:#ffffff;stroke-width:1.79911423;stroke-miterlimit:6.4000001;stroke-dasharray:none;stroke-dashoffset:0;stroke-opacity:1"
       id="path4311"
       d="m 391.54624,59.85748 c -0.46658,-1.56228 -0.74047,-2.0084 -1.72832,-2.8689 -1.51406,-1.35467 -3.06623,-2.00723 -4.67097,-2.42695 -2.85584,-0.48109 -5.69192,-0.76465 -8.50936,-0.86079 -3.26655,-0.22527 -6.50254,-0.4736 -9.70478,-0.22698 -4.55953,0.62538 -9.07756,1.45024 -13.63274,2.09779 -4.99695,0.63378 -9.85537,1.92008 -14.63806,3.45832 -3.14841,1.07415 -6.37938,1.83321 -9.51123,2.96657 -1.76112,0.67772 -3.47806,1.49844 -5.18409,2.34813 -0.41484,0.3818 -1.28255,0.29552 -1.51406,1.03159 0.0979,0.6143 0.3027,1.09362 0.57354,1.62252 0.85255,1.60824 2.00143,2.10863 3.17329,2.76733 28.02959,-9.23851 44.4058,-5.73861 64.63788,-9.26493 -14.84042,-0.75365 -65.11502,13.92752 -68.64904,7.29807 -0.56544,-1.16128 -1.02543,-2.41882 -0.66696,-3.60725 0.47831,-0.82838 1.19547,-1.10705 1.90533,-1.44399 1.7299,-0.8613 3.47088,-1.69308 5.25682,-2.37933 3.1398,-1.13513 6.37756,-1.89997 9.53425,-2.9744 4.81916,-1.54913 9.71436,-2.84512 14.74917,-3.4839 4.56971,-0.64947 9.10167,-1.47907 13.6765,-2.10257 3.23529,-0.2464 6.48276,-0.006 9.78213,0.22538 2.87323,0.0988 5.76569,0.38624 8.67872,0.88621 4.35273,1.17136 9.95536,7.74493 4.7355,8.56983 z"
       inkscape:connector-curvature="0"
       sodipodi:nodetypes="cccccccccccccccccccccccc" />
    <path
       inkscape:connector-curvature="0"
       id="path4317"
       d="m 390.09179,67.6328 c -2.73104,12.76045 -8.44355,24.17153 -11.67571,36.73259 -4.51898,15.21782 -7.67297,31.19134 -7.71812,47.45199 -0.21696,7.32206 -0.65567,14.7493 0.36911,22.00447 2.15748,6.90303 8.75426,2.87246 9.93227,-2.58834 6.70862,-11.52992 11.95111,-24.24747 17.6802,-36.45507 5.98515,-2.52591 3.07044,8.30684 4.20219,12.34819 0.69492,7.81554 1.56401,16.21944 5.49385,22.70054 3.58163,4.68791 9.94114,6.08077 13.90106,3.41814 6.31815,1.72103 0.73021,-8.00885 0.29235,-11.41409 -0.79609,-4.98656 0.0999,-10.13113 -0.0878,-15.20456 0.28465,-16.98607 0.8055,-34.09319 -1.55438,-50.91836 -1.45275,-12.4439 -3.23698,-25.40467 -8.96625,-36.11552 -2.91365,-5.59219 -8.65609,-6.93296 -13.7152,-6.61265 -2.0393,0.33914 -8.50512,0.0646 -3.54653,-1.48852 4.15272,0.28919 8.48316,-0.15344 12.4893,1.41079 4.99293,2.13387 8.05747,7.81584 9.84831,13.58579 4.84213,13.4065 5.65705,28.23494 7.20028,42.57857 1.03242,17.1475 -0.005,34.36421 0.0423,51.5077 0.22601,5.30332 0.78022,14.2456 -4.77152,15.482 -5.82745,0.51761 -12.27466,-2.53595 -14.86507,-9.30504 -3.72702,-9.88366 -3.72503,-21.0535 -4.45276,-31.70368 2.14215,-0.1194 -2.83168,4.35286 -2.56582,6.36057 -5.46187,12.36538 -11.06031,24.73825 -18.18221,35.82528 -4.69184,5.61341 -12.3023,-1.51184 -10.82476,-8.69487 -0.39921,-18.18646 0.44714,-36.69112 5.07749,-54.11322 3.24019,-13.25486 7.79462,-25.93314 12.27867,-38.6081 1.35765,-1.64271 1.36355,-11.4271 4.11869,-8.1846 z"
       style="opacity:0.97000002;fill:#c5cdc2;fill-opacity:0.98255914;fill-rule:evenodd;stroke:#ffffff;stroke-width:2.18803573;stroke-miterlimit:6.4000001;stroke-dasharray:none;stroke-dashoffset:0;stroke-opacity:1" />
    <path
       style="opacity:0.97000002;fill:#c5cdc2;fill-opacity:0.98255914;fill-rule:evenodd;stroke:#ffffff;stroke-width:2.11420393;stroke-miterlimit:6.4000001;stroke-dasharray:none;stroke-dashoffset:0;stroke-opacity:1"
       id="path4319"
       d="m 392.48554,28.2073 c -0.93445,1.0142 -1.23898,2.03659 -1.42483,3.11135 -0.21724,1.58711 0.0114,3.05546 0.09,4.55887 0.0854,1.39516 0.27327,2.75147 0.68214,4.01462 0.43862,1.16004 1.09769,2.19343 1.75959,3.2185 0.52248,0.77278 1.11458,1.54095 2.15742,1.81661 1.0738,0.23081 2.20166,0.26735 3.44356,0.0625 1.87645,-0.34203 3.78252,-1.00059 5.64407,-1.7876 0.54442,-0.32152 1.27092,-0.47777 1.78686,-0.87117 0.23319,-0.17852 0.53245,-1.10625 0.59517,-1.25773 0.89169,-2.25513 1.11946,-4.44672 1.31216,-6.60748 0.17315,-3.32558 -0.31289,-6.44894 -1.2256,-9.36663 -0.74252,-2.11311 -1.38176,-4.2812 -2.2436,-6.33255 -0.56565,-0.96089 -0.8523,-2.16624 -1.67189,-2.95779 -0.56851,-0.29351 -1.37603,-0.11954 -2.13691,0.0771 -1.05737,0.29101 -2.04963,0.92894 -3.01018,1.53348 -1.44539,0.94397 -2.88699,1.89672 -4.27024,2.92712 -2.03885,1.60859 -2.99668,3.40775 -4.29802,5.41411 -0.68216,1.04237 -2.12865,0.66402 -1.44648,-0.37835 l 0,0 c 1.4812,-2.24504 2.59752,-4.26229 4.9076,-6.05257 1.44302,-1.06975 2.93942,-2.0679 4.44671,-3.04784 1.19996,-0.75345 2.43765,-1.51221 3.7581,-1.85575 1.35085,-0.32453 2.65028,-0.47457 3.52687,0.1979 0.84605,0.92211 1.2934,2.13025 1.85562,3.23777 0.87141,2.08018 1.52471,4.27454 2.27458,6.41759 0.94767,3.05218 1.45825,6.31475 1.26716,9.79341 -0.20795,2.31503 -0.46681,4.66426 -1.43724,7.08001 -0.89422,1.99446 -1.54265,2.48212 -3.71605,3.38819 -2.04311,0.85885 -4.13199,1.57887 -6.19009,1.94601 -1.50239,0.23144 -2.88455,0.20481 -4.17606,-0.0965 -1.27071,-0.39997 -2.11064,-1.22704 -2.73942,-2.23216 -0.70545,-1.09285 -1.40431,-2.19686 -1.8632,-3.43813 -0.43097,-1.34894 -0.64275,-2.79008 -0.72974,-4.27913 -0.0828,-1.59499 -0.32236,-3.15344 -0.0716,-4.84236 0.23664,-1.32632 0.659,-2.63694 1.78163,-3.89022 0.76431,-1.0167 2.12616,-0.51786 1.36186,0.49882 z"
       inkscape:connector-curvature="0" />
    <path
       style="opacity:0.97000002;fill:#c5cdc2;fill-opacity:0.98255914;fill-rule:evenodd;stroke:#ffffff;stroke-width:2.11420393;stroke-miterlimit:6.4000001;stroke-dasharray:none;stroke-dashoffset:0;stroke-opacity:1"
       id="path4321"
       d="m 368.03118,176.47351 c -1.17414,-0.006 -2.35365,-0.0508 -3.47732,0.21919 -0.94257,0.24729 -1.81061,0.71241 -2.464,1.2397 -0.79976,0.78621 -1.75281,1.48376 -2.65867,2.20896 -0.46653,0.40742 -1.34662,0.7884 -1.52891,1.32137 -0.0506,0.0756 0.16421,0.40711 0.18788,0.20359 0.83515,0.0993 1.69782,0.0721 2.54308,0.0735 1.35453,-0.002 2.70904,-0.006 4.06355,-0.008 2.02057,0.0667 3.96943,-0.32838 5.85047,-0.79611 1.33858,-0.33316 2.65128,-0.75648 3.80672,-1.33479 0.62563,-0.24682 1.13253,-0.57478 1.62294,-0.93278 0.92774,-0.6722 2.30313,0.23464 1.37539,0.90686 l 0,0 c -0.57648,0.41516 -1.17519,0.80451 -1.89875,1.09759 -1.31292,0.63389 -2.75357,1.13689 -4.26743,1.50051 -2.08721,0.51115 -4.24685,0.94312 -6.4853,0.87251 -1.35747,0.002 -2.71492,0.006 -4.07239,0.008 -1.08545,-0.002 -2.20873,0.0462 -3.25919,-0.17173 -1.09107,-0.37905 -1.5592,-1.04794 -1.24136,-1.89039 0.41585,-0.66755 1.11003,-1.2102 1.86675,-1.7106 0.91854,-0.73034 1.87006,-1.43993 2.68547,-2.22986 0.91879,-0.67853 2.00427,-1.3019 3.29203,-1.6092 1.32683,-0.2802 2.67746,-0.32147 4.05904,-0.2822 1.34408,0 1.34408,1.31379 0,1.31379 z"
       inkscape:connector-curvature="0" />
    <path
       style="opacity:0.97000002;fill:#c5cdc2;fill-opacity:0.98255914;fill-rule:evenodd;stroke:#ffffff;stroke-width:2.11420393;stroke-miterlimit:6.4000001;stroke-dasharray:none;stroke-dashoffset:0;stroke-opacity:1"
       id="path4323"
       d="m 427.65859,173.8868 c 1.71834,0.006 3.43606,-0.0315 5.15063,0.0542 2.00885,0.17506 3.8959,0.61116 5.71805,1.20539 1.30876,0.40331 2.62781,0.77996 3.7777,1.37967 0.5348,0.38062 0.91995,0.82914 1.48209,1.19101 1.21912,0.64279 1.32347,1.2204 0.8401,2.21674 -0.83243,1.22091 -2.4224,1.98405 -4.1362,2.54429 -2.28103,0.56795 -4.74811,0.56732 -7.1436,0.60713 -2.71624,0.0938 -5.37308,-0.17973 -7.96712,-0.71345 -2.17742,-0.50989 -4.24136,-1.20507 -6.31516,-1.8828 -1.05919,-0.34937 -2.06374,-0.76366 -3.04294,-1.20869 -1.12253,-0.51094 -0.0771,-1.6082 1.04543,-1.09724 l 0,0 c 0.9039,0.41212 1.83158,0.79493 2.81002,1.1182 1.98741,0.6495 3.9637,1.31743 6.04735,1.8118 2.40096,0.49899 4.86094,0.74764 7.37701,0.65874 2.13509,-0.035 4.33582,-0.0252 6.38671,-0.48474 1.26127,-0.39775 2.48573,-0.93922 3.1557,-1.80894 0.36667,-0.5674 0.52586,-0.24151 -0.36054,-0.80464 -0.50729,-0.333 -0.94345,-0.701 -1.33157,-1.10275 -1.03378,-0.55293 -2.26595,-0.855 -3.43934,-1.23719 -1.60913,-0.53029 -3.27065,-0.91598 -5.04543,-1.08237 -1.66647,-0.0893 -3.33836,-0.0385 -5.00889,-0.0507 -1.34408,0 -1.34408,-1.31379 0,-1.31379 z"
       inkscape:connector-curvature="0" />
    <path
       style="opacity:0.97000002;fill:#f70a0a;fill-opacity:0.98255914;fill-rule:evenodd;stroke:#ff053d;stroke-width:0.72724199;stroke-miterlimit:6.4000001;stroke-dasharray:none;stroke-dashoffset:0;stroke-opacity:1"
       id="path4403"
       d="m 407.96653,72.1377 c -0.44723,0 -0.89447,0 -1.3417,0 -0.52045,0.0128 -1.03848,-0.0932 -1.55606,-0.16869 -0.31434,-0.0225 -0.63294,-0.095 -0.94684,-0.0358 -0.20861,0.0382 -0.40427,0.176 -0.56279,0.39901 -0.12281,0.24805 -0.2399,0.49559 -0.30677,0.7975 -0.0912,0.42448 -0.0963,0.87793 -0.10563,1.32248 -0.007,0.44519 -0.004,0.8906 -0.003,1.33591 -0.0203,0.37251 0.004,0.69161 0.0907,1.03232 0.14129,0.5063 0.37554,0.90478 0.62285,1.27905 0.40341,0.61881 0.8583,1.13468 1.29761,1.68184 0.42315,0.41836 0.81675,0.89488 1.1828,1.43571 0.34275,0.45121 0.67175,0.92079 0.97242,1.44524 0.11074,0.21903 0.23752,0.41366 0.36696,0.60281 0.0356,0.0521 0.17469,0.29817 0.16218,0.14497 0.003,-0.0198 10e-4,-0.0436 0.009,-0.0593 0.0714,-0.14369 0.16304,-0.25771 0.23796,-0.3965 0.16508,-0.30584 0.31358,-0.6371 0.46322,-0.9626 0.37247,-0.71826 0.63643,-1.54683 0.91582,-2.36139 0.21932,-0.79678 0.43826,-1.59478 0.65683,-2.39269 0.3149,-1.00915 0.47585,-2.09741 0.61404,-3.19728 0.16586,-1.07642 0.27561,-2.16855 0.33709,-3.27267 0.0313,-0.68136 0.0662,-1.3658 -0.035,-2.03502 -0.16683,-0.45397 -0.50205,-0.58674 -0.79322,-0.73521 -0.32452,-0.1333 -0.66232,-0.25529 -0.99879,-0.21327 -0.27933,0.0954 -0.48044,0.43176 -0.6703,0.7553 -0.19349,0.35128 -0.32118,0.74938 -0.40281,1.19735 -0.0771,0.39291 -0.17269,0.77411 -0.30463,1.12696 -0.0604,0.1758 -0.0313,0.089 -0.0873,0.26056 -0.14137,0.43263 -0.51832,0.10821 -0.37697,-0.32445 l 0,0 c 0.0636,-0.19419 0.03,-0.0943 0.10118,-0.29983 0.11599,-0.29766 0.1901,-0.62951 0.25897,-0.9619 0.10288,-0.55175 0.26332,-1.04669 0.5032,-1.47735 0.26708,-0.45159 0.55567,-0.87394 0.95244,-0.96786 0.39003,-0.0323 0.7781,0.075 1.15364,0.2442 0.44265,0.2285 0.89034,0.48177 1.07988,1.23662 0.10472,0.74476 0.0869,1.49875 0.0447,2.2564 -0.0633,1.1295 -0.17439,2.2473 -0.34396,3.34861 -0.14446,1.14885 -0.31505,2.28531 -0.64224,3.34026 -0.22381,0.81672 -0.4467,1.63455 -0.67391,2.44818 -0.28868,0.84127 -0.56304,1.69591 -0.94671,2.43883 -0.22358,0.48572 -0.50599,1.20541 -0.8232,1.53825 -0.0658,0.0691 -0.14261,0.10533 -0.21393,0.15808 -0.0716,-0.0112 -0.14581,-0.003 -0.21489,-0.036 -0.24195,-0.11588 -0.46161,-0.67191 -0.64152,-0.93228 -0.29233,-0.51099 -0.6145,-0.96412 -0.94728,-1.40488 -0.35698,-0.52857 -0.74324,-0.98723 -1.15518,-1.3982 -0.45044,-0.56111 -0.91645,-1.09098 -1.32977,-1.72613 -0.29054,-0.44466 -0.56335,-0.92048 -0.72583,-1.52192 -0.10616,-0.42342 -0.14451,-0.83477 -0.12241,-1.29226 -10e-4,-0.45396 -0.003,-0.90804 0.004,-1.3619 0.0105,-0.52188 0.0225,-1.05186 0.13401,-1.54795 0.10105,-0.40785 0.24792,-0.76529 0.43491,-1.0846 0.23039,-0.29555 0.49277,-0.50473 0.78903,-0.55161 0.3423,-0.0523 0.68644,-9.3e-4 1.02878,0.035 0.50486,0.0738 1.0102,0.17862 1.51783,0.1659 0.44723,0 0.89446,0 1.34172,0 0.30169,0 0.30169,0.69253 0,0.69253 z"
       inkscape:connector-curvature="0" />
    <path
       inkscape:transform-center-y="4.2260384"
       inkscape:transform-center-x="-1.493304"
       sodipodi:nodetypes="cccccccccccccccccccccccc"
       inkscape:connector-curvature="0"
       d="m 490.53155,34.88307 c -0.67737,-1.17608 -1.02255,-1.48119 -2.18423,-1.96934 -1.78444,-0.77746 -3.53183,-0.97224 -5.31002,-0.96509 -3.13488,0.23022 -6.2265,0.61773 -9.27709,1.15445 -3.54957,0.52921 -7.06873,1.03287 -10.49635,1.93404 -4.84993,1.50748 -9.63284,3.16904 -14.4756,4.6937 -5.32094,1.60986 -10.41975,3.72326 -15.4088,6.02621 -3.27742,1.56635 -6.67899,2.89297 -9.93194,4.50417 -1.82471,0.93904 -3.58585,1.98541 -5.33198,3.0531 -0.40508,0.40296 -1.35092,0.52189 -1.51874,1.17458 0.17415,0.4811 0.44836,0.8285 0.79948,1.202 1.09893,1.12936 2.39425,1.28775 3.73198,1.57063 29.21415,-13.67953 47.27312,-14.39338 68.71008,-21.69706 -16.09613,2.62491 -68.70573,25.61538 -73.25695,20.96422 -0.73939,-0.82644 -1.37574,-1.75468 -1.12128,-2.80513 0.42385,-0.78211 1.1666,-1.16672 1.89499,-1.59738 1.77059,-1.08241 3.55643,-2.14309 5.40699,-3.09454 3.26132,-1.61434 6.66956,-2.94721 9.95587,-4.51559 5.02722,-2.31983 10.16462,-4.44918 15.52587,-6.07142 4.85821,-1.52939 9.65564,-3.19786 14.52227,-4.70715 3.46332,-0.90821 6.99399,-1.42068 10.57963,-1.95223 3.1111,-0.54684 6.26395,-0.94337 9.46266,-1.17066 4.82685,0.008 11.6038,4.16111 6.06362,5.97602 z"
       id="path4419"
       style="opacity:0.97000002;fill:#c5cdc2;fill-opacity:0.98255914;fill-rule:evenodd;stroke:#ffffff;stroke-width:1.7133534;stroke-miterlimit:6.4000001;stroke-dasharray:none;stroke-dashoffset:0;stroke-opacity:1" />
    <path
       style="opacity:0.97000002;fill:#f70a0a;fill-opacity:0.98255914;fill-rule:evenodd;stroke:#ffffff;stroke-width:1.06572914;stroke-miterlimit:6.4000001;stroke-dasharray:none;stroke-dashoffset:0;stroke-opacity:1"
       id="path4651"
       d="m 446.39021,172.17806 c 1.06192,0.33925 1.95813,1.03103 2.76312,1.9124 0.80931,0.958 1.24961,2.01818 1.33929,3.37385 -0.007,1.03894 -0.28023,2.03119 -0.54331,3.00891 -0.15801,0.58854 -0.84826,0.31818 -0.6897,-0.27073 l 0,0 c 0.23425,-0.87103 0.48391,-1.75331 0.50963,-2.677 -0.0532,-1.09234 -0.45418,-2.0258 -1.10538,-2.79006 -0.72498,-0.80742 -1.54012,-1.42314 -2.50349,-1.72813 -0.48642,-0.19615 -0.25643,-1.0259 0.22998,-0.82973 z"
       inkscape:connector-curvature="0"
       inkscape:transform-center-x="-1.1068489"
       inkscape:transform-center-y="-2.737861" />
  </g>
  <path
     inkscape:connector-curvature="0"
     d="m 497.8659,31.53176 c -0.0105,1.21493 0.0331,2.43109 -0.0405,3.64336 -0.0532,1.35108 -0.46383,2.60237 -0.86457,3.84419 -0.30836,0.72967 -0.70852,1.38987 -1.05982,2.08799 -0.36249,0.71988 -1.1973,0.0946 -0.8348,-0.62517 l 0,0 c 0.32179,-0.63865 0.67966,-1.24799 0.98306,-1.90043 0.36517,-1.13099 0.75156,-2.26641 0.79936,-3.49803 0.0773,-1.18106 0.0216,-2.36796 0.0376,-3.55191 0,-0.84479 0.97964,-0.84479 0.97964,0 z"
     id="path4653"
     style="opacity:0.97000002;fill:#f70a0a;fill-opacity:0.98255914;fill-rule:evenodd;stroke:#fff9fa;stroke-width:1.44735181;stroke-miterlimit:6.4000001;stroke-dasharray:none;stroke-dashoffset:0;stroke-opacity:1" />
  <g
     transform="matrix(1.3106244,0,0,1.598343,-19.425799,-770.61942)"
     id="g4655">
    <path
       style="opacity:0.97000002;fill:#faf10a;fill-opacity:0.98255914;fill-rule:evenodd;stroke:#fff9fa;stroke-width:0.8579253;stroke-miterlimit:6.4000001;stroke-dasharray:none;stroke-dashoffset:0;stroke-opacity:1"
       id="path4657"
       d="m 399.04419,504.74564 c 0,0.5651 0,1.13019 0,1.69529 -0.0419,0.57736 -0.10268,1.15377 -0.27351,1.71629 -0.0892,0.24584 -0.2544,0.4562 -0.42854,0.66687 -0.27983,0.33853 -0.87617,0.0209 -0.59634,-0.3177 l 0,0 c 0.12857,-0.15553 0.25803,-0.30517 0.32969,-0.4857 0.1583,-0.51763 0.21003,-1.04849 0.25299,-1.57976 0,-0.5651 0,-1.13019 0,-1.69529 0,-0.40629 0.71571,-0.40629 0.71571,0 z"
       inkscape:connector-curvature="0" />
  </g>
  <g
     id="g4400">
    <path
       style="fill:none;fill-rule:evenodd;stroke:#080803;stroke-width:1.03217793px;stroke-linecap:butt;stroke-linejoin:miter;stroke-opacity:0.17610061"
       d="m 5.3514445,186.82631 267.7486855,0 0,0 0,0"
       id="path4250"
       inkscape:connector-curvature="0" />
    <g
       style="stroke:#080803;stroke-opacity:0.17610061"
       transform="matrix(2.5430271,0,0,1.7576922,114.97063,-698.13404)"
       id="g4437">
      <path
         style="opacity:0.97000002;fill:#c5cdc2;fill-opacity:0.98255914;fill-rule:evenodd;stroke:#080803;stroke-width:0.85096532;stroke-miterlimit:6.4000001;stroke-dasharray:none;stroke-dashoffset:0;stroke-opacity:0.17610061"
         id="path4439"
         d="m 41.386944,429.499 c -0.535562,-0.0435 -0.709785,0.0342 -1.11543,0.47824 -0.632378,0.67274 -1.061589,1.52368 -1.42947,2.45929 -0.575569,1.72329 -1.08937,3.47719 -1.544577,5.26022 -0.561635,2.04231 -1.125499,4.06001 -1.536963,6.16452 -0.504265,3.05659 -0.942884,6.13031 -1.439891,9.18897 -0.567995,3.33853 -0.920831,6.73128 -1.187229,10.13076 -0.157058,2.25131 -0.420381,4.48648 -0.557312,6.74017 -0.06498,1.27616 -0.08071,2.55535 -0.08617,3.83391 0.05083,0.34926 -0.106247,0.88599 0.07774,1.19547 0.197624,0.0719 0.371276,0.0457 0.56968,-0.0118 0.607677,-0.19361 0.930543,-0.81965 1.303991,-1.42573 0.652325,-1.06884 1.186836,-2.24448 1.73454,-3.40532 0.206413,-0.43747 0.680678,-0.0566 0.474264,0.38081 l 0,0 c -0.559983,1.18678 -1.107509,2.3878 -1.774964,3.48001 -0.456463,0.7389 -0.881541,1.46377 -1.626476,1.68205 -0.431191,0.10768 -0.875075,0.12675 -1.174452,-0.36312 -0.174091,-0.48776 -0.14844,-1.00801 -0.14122,-1.53637 0.0056,-1.29639 0.02168,-2.59339 0.0879,-3.88731 0.137604,-2.25917 0.400234,-4.49994 0.558456,-6.75663 0.268684,-3.42521 0.624205,-6.84364 1.196445,-10.20751 0.498643,-3.06838 0.937956,-6.15206 1.445096,-9.21803 0.416532,-2.12563 0.979826,-4.15237 1.548199,-6.2144 0.464457,-1.81817 0.987938,-3.60733 1.577783,-5.3631 1.007635,-2.53058 3.812137,-4.67808 3.267263,-1.15493 z"
         inkscape:connector-curvature="0"
         sodipodi:nodetypes="ccccccccccccscccccccccccccc" />
      <path
         style="opacity:0.97000002;fill:#c5cdc2;fill-opacity:0.98255914;fill-rule:evenodd;stroke:#080803;stroke-width:0.7995007;stroke-miterlimit:6.4000001;stroke-dasharray:none;stroke-dashoffset:0;stroke-opacity:0.17610061"
         d="m 58.474801,455.1119 c 0.18663,5.03321 0.28378,10.07809 0.272728,15.1177 -0.06851,2.24916 -0.55533,4.99941 -2.122356,5.89465 -1.275744,0.28544 -1.274648,-2.22518 -1.435799,-3.51917 -0.327413,-2.762 -0.988529,-5.51246 -0.759744,-8.35455 1.119922,3.50499 0.862009,7.52389 1.691263,11.15179 4.061116,-3.39599 1.997242,-14.5515 1.917392,-19.68742 -0.224526,-4.05526 -0.795535,-8.04834 -1.044486,-12.10045 -0.400826,-4.17487 -0.510223,-9.01516 -2.488227,-12.01638 -0.577092,-0.87562 -1.557187,-2.79722 -2.353015,-1.16587 5.024706,-3.02181 5.93233,19.67859 6.322244,24.6797 z"
         id="path4441"
         inkscape:connector-curvature="0"
         sodipodi:nodetypes="ccccccccacc" />
      <g
         style="stroke:#080803;stroke-opacity:0.17610061"
         id="g4443">
        <path
           inkscape:connector-curvature="0"
           d="m 42.729954,438.32932 c -0.327031,2.95305 -1.145186,5.83886 -1.849891,8.71883 -0.254262,1.03933 -0.510447,2.07819 -0.762786,3.11799 -0.72802,2.9999 -0.948355,3.85829 -1.586937,6.90575 -0.72394,3.4548 -1.328163,6.92568 -1.902147,10.40777 -0.890735,5.55635 -1.194291,11.17599 -1.339173,16.79342 -0.0026,3.69089 -0.197637,7.39259 0.04685,11.07914 0.09937,1.06658 0.266679,1.99338 1.018277,2.77818 0.239015,0.19085 0.701996,0.48433 1.030434,0.44075 0.05351,-0.007 0.0927,-0.0553 0.139057,-0.083 0.660076,-0.78273 0.997758,-1.80839 1.379121,-2.74213 0.726165,-1.77798 0.505803,-1.23578 1.241503,-3.14774 1.616682,-4.17068 2.974657,-8.4327 4.274969,-12.71034 0.461047,-1.43134 0.886081,-2.87751 1.430753,-4.28055 0.09608,-0.24751 0.188267,-0.4979 0.311491,-0.73307 0.07099,-0.13549 0.11757,-0.34406 0.267841,-0.3726 0.250344,-0.0475 0.495204,0.12044 0.742805,0.18065 0.06032,0.2751 0.144962,0.54598 0.180967,0.82531 0.06787,0.5265 0.09201,2.01628 0.105156,2.47401 0.04929,1.71613 0.131457,3.42543 0.241416,5.13874 0.215281,3.04838 0.557498,6.08852 1.272831,9.06214 0.377978,1.32604 0.886287,2.46611 1.837614,3.46575 0.550968,0.53597 1.210879,0.8531 1.947587,1.03807 0.263165,0.0209 1.351328,0.30499 1.537717,0.0967 0.05518,-0.0617 0.06177,-0.15353 0.09265,-0.2303 0.06065,-0.23762 0.140268,-0.4712 0.181962,-0.71287 0.391167,-2.26731 0.385979,-4.85108 0.446463,-7.13585 0.0745,-2.81412 0.0895,-4.8987 0.124222,-7.73114 -0.01725,-6.53681 0.209436,-13.0819 -0.07125,-19.61604 -0.0453,-1.05449 -0.123113,-2.10733 -0.18467,-3.161 -0.421774,-4.82346 -0.720617,-9.663 -1.396865,-14.45951 -0.398424,-2.78447 -1.049338,-5.5216 -1.842044,-8.2177 -0.318622,-1.34645 -0.911827,-2.58222 -1.753437,-3.67373 -0.5269,-0.74095 -1.233899,-1.11455 -2.092592,-1.33586 -0.902285,-0.17817 -1.8261,-0.183 -2.74225,-0.19018 -0.374516,-0.0245 -0.745288,0.0227 -1.1153,0.0712 -0.524153,0.0679 -0.620216,-0.67334 -0.09606,-0.74127 l 0,0 c 0.403796,-0.0518 0.808904,-0.10131 1.217276,-0.0774 0.978213,0.008 1.964674,0.0155 2.926617,0.21478 1.051598,0.28171 1.836006,0.71039 2.495169,1.60348 0.893141,1.16759 1.536169,2.48147 1.87771,3.91818 0.80241,2.73113 1.461842,5.50364 1.865068,8.3242 0.678065,4.81682 0.98085,9.67632 1.402904,14.52023 0.06188,1.06099 0.140078,2.12116 0.185628,3.18298 0.28074,6.5444 0.05463,13.09971 0.07151,19.64678 -0.03473,2.83222 -0.04991,4.93264 -0.124592,7.74721 -0.02876,1.08412 -0.06041,2.16828 -0.110018,3.25164 -0.04806,1.04957 -0.12488,2.92001 -0.366777,4.07119 -0.06985,0.33243 -0.210663,0.64589 -0.315995,0.96883 -0.160417,0.16132 -0.289779,0.36109 -0.481251,0.48395 -0.383965,0.24638 -1.487678,-0.04 -1.91741,-0.0945 -0.871693,-0.22733 -1.65665,-0.60733 -2.30496,-1.24845 -1.051201,-1.11703 -1.601275,-2.32833 -2.021405,-3.80482 -0.7235,-3.01569 -1.075471,-6.09746 -1.291975,-9.18889 -0.171196,-2.67045 -0.234928,-5.34309 -0.362286,-8.01525 0.144662,-0.0668 0.274888,-0.20905 0.433986,-0.20037 0.09238,0.005 -0.133558,0.13234 -0.176217,0.21443 -0.116279,0.22376 -0.205489,0.4608 -0.296812,0.69586 -0.540192,1.39039 -0.960797,2.82391 -1.418021,4.24238 -1.30561,4.29485 -2.669337,8.57393 -4.292527,12.7614 -0.721516,1.87473 -0.535048,1.42083 -1.248082,3.16425 -0.369899,0.90442 -0.716743,2.03688 -1.379635,2.79337 -0.13366,0.15254 -0.316963,0.25311 -0.475445,0.37966 -0.160673,0.0345 -0.318058,0.0924 -0.482019,0.10358 -0.468965,0.0319 -1.111892,-0.37432 -1.446396,-0.66444 -0.904768,-0.97156 -1.086519,-1.93364 -1.220247,-3.24169 -0.243753,-3.70958 -0.05367,-7.43377 -0.04823,-11.14766 0.145964,-5.6517 0.452313,-11.30555 1.348879,-16.89572 0.576215,-3.49496 1.182763,-6.97867 1.909525,-10.44623 0.640312,-3.05508 0.861765,-3.91836 1.591015,-6.92333 0.252342,-1.03981 0.508531,-2.07869 0.762796,-3.11803 0.690807,-2.823 1.485472,-5.64986 1.82847,-8.54117 0,-0.52853 0.747463,-0.52853 0.747463,0 z"
           id="path4445"
           style="opacity:0.97000002;fill:#c5cdc2;fill-opacity:0.98255914;fill-rule:evenodd;stroke:#080803;stroke-width:1;stroke-miterlimit:6.4000001;stroke-dasharray:none;stroke-dashoffset:0;stroke-opacity:0.17610061" />
        <path
           inkscape:connector-curvature="0"
           d="m 47.636387,417.39608 c -0.527654,0.18106 -0.85175,0.56638 -1.148674,1.01418 -0.41983,0.67945 -0.668171,1.44475 -0.973146,2.17885 -0.27896,0.6852 -0.515956,1.38469 -0.660435,2.11055 -0.112097,0.68668 -0.12449,1.38377 -0.134118,2.07784 4.85e-4,0.53071 0.02449,1.08139 0.303848,1.54319 0.299303,0.4505 0.65895,0.82656 1.10886,1.12503 0.68694,0.43568 1.453137,0.73148 2.233066,0.95253 0.248179,0.0216 0.519379,0.179 0.774081,0.1576 0.115275,-0.01 0.416838,-0.35237 0.470598,-0.40387 0.786594,-0.77995 1.342776,-1.74116 1.880747,-2.69899 0.787738,-1.51344 1.316116,-3.14123 1.660165,-4.80775 0.222615,-1.2329 0.49098,-2.45886 0.661116,-3.70059 0.0269,-0.63317 0.198502,-1.29288 0.10538,-1.92697 -0.120795,-0.31931 -0.422302,-0.49417 -0.713599,-0.64348 -0.408692,-0.19915 -0.872448,-0.21395 -1.318524,-0.23441 -0.678774,-0.0146 -1.358247,-0.0239 -2.035772,0.022 -1.018394,0.11004 -1.726278,0.65389 -2.59171,1.18619 -0.451598,0.27461 -0.839953,-0.36405 -0.388355,-0.63865 l 0,0 c 0.976553,-0.58765 1.784068,-1.18394 2.93083,-1.29338 0.705667,-0.0455 1.412982,-0.0402 2.119845,-0.0228 0.556876,0.0264 1.127208,0.0623 1.633219,0.32036 0.51174,0.2767 0.968351,0.61935 1.106239,1.21541 0.07304,0.70409 -0.04679,1.41624 -0.107047,2.11748 -0.173352,1.25837 -0.442917,2.5012 -0.669716,3.75055 -0.362228,1.74108 -0.913216,3.44233 -1.740469,5.02227 -0.576861,1.02574 -1.177849,2.05141 -2.025427,2.88207 -0.730093,0.65621 -1.048717,0.67991 -1.956494,0.4158 -0.854912,-0.24493 -1.694218,-0.56991 -2.445894,-1.05152 -0.540668,-0.36883 -0.985394,-0.82113 -1.340177,-1.37412 -0.326298,-0.59293 -0.418247,-1.25024 -0.4022,-1.92436 0.01037,-0.73988 0.0253,-1.48294 0.148638,-2.21439 0.156137,-0.77335 0.404002,-1.52045 0.703083,-2.25045 0.323748,-0.77862 0.588351,-1.58989 1.041505,-2.30669 0.368799,-0.55028 0.79469,-1.03407 1.436262,-1.26802 0.472737,-0.23637 0.807012,0.43218 0.334275,0.66855 z"
           id="path4447"
           style="opacity:0.97000002;fill:#c5cdc2;fill-opacity:0.98255914;fill-rule:evenodd;stroke:#080803;stroke-width:1;stroke-miterlimit:6.4000001;stroke-dasharray:none;stroke-dashoffset:0;stroke-opacity:0.17610061" />
        <path
           inkscape:connector-curvature="0"
           d="m 35.201085,498.60021 c -0.461713,-0.004 -0.925534,-0.0289 -1.367396,0.1247 -0.370647,0.14069 -0.711988,0.40531 -0.968928,0.7053 -0.314488,0.4473 -0.689257,0.84415 -1.045473,1.25674 -0.183454,0.23179 -0.529532,0.44854 -0.601213,0.75176 -0.01989,0.043 0.06457,0.23162 0.07388,0.11583 0.328408,0.0565 0.667636,0.041 1.000022,0.0418 0.532642,-10e-4 1.065277,-0.004 1.597919,-0.005 0.794548,0.0379 1.560903,-0.18682 2.300591,-0.45292 0.526376,-0.18954 1.042567,-0.43038 1.496926,-0.7594 0.246016,-0.14042 0.445346,-0.32701 0.638192,-0.53068 0.364816,-0.38244 0.905666,0.13349 0.540849,0.51593 l 0,0 c -0.226692,0.2362 -0.462125,0.45771 -0.746651,0.62445 -0.516285,0.36064 -1.082793,0.64681 -1.678093,0.85368 -0.820756,0.29081 -1.669998,0.53657 -2.550226,0.4964 -0.533801,0.001 -1.067596,0.004 -1.601396,0.005 -0.426834,-10e-4 -0.868542,0.0263 -1.28162,-0.0977 -0.429041,-0.21565 -0.613128,-0.5962 -0.488143,-1.0755 0.163525,-0.37979 0.436503,-0.68852 0.73407,-0.9732 0.361196,-0.41552 0.735366,-0.81922 1.056013,-1.26864 0.361294,-0.38603 0.788143,-0.74068 1.294528,-0.91551 0.521757,-0.15942 1.052862,-0.1829 1.596146,-0.16056 0.528536,0 0.528536,0.74746 0,0.74746 z"
           id="path4449"
           style="opacity:0.97000002;fill:#c5cdc2;fill-opacity:0.98255914;fill-rule:evenodd;stroke:#080803;stroke-width:1;stroke-miterlimit:6.4000001;stroke-dasharray:none;stroke-dashoffset:0;stroke-opacity:0.17610061" />
        <path
           inkscape:connector-curvature="0"
           d="m 56.208722,494.8629 c 0.675709,0.004 1.35117,-0.0179 2.025393,0.0308 0.789943,0.0996 1.531991,0.3477 2.24852,0.68578 0.514645,0.22945 1.033343,0.44374 1.485512,0.78493 0.210302,0.21654 0.36176,0.47172 0.582807,0.6776 0.479399,0.3657 0.520431,0.69432 0.330355,1.26116 -0.327336,0.69461 -0.952564,1.12879 -1.626486,1.44752 -0.896977,0.32313 -1.867114,0.32276 -2.809092,0.34541 -1.068113,0.0534 -2.112872,-0.10225 -3.132934,-0.4059 -0.856231,-0.29009 -1.667835,-0.6856 -2.483318,-1.07118 -0.416512,-0.19876 -0.811533,-0.43446 -1.196585,-0.68765 -0.441416,-0.29069 -0.03032,-0.91495 0.411101,-0.62425 l 0,0 c 0.35544,0.23446 0.72023,0.45226 1.104988,0.63617 0.781513,0.36952 1.55865,0.74953 2.378012,1.03079 0.944137,0.28388 1.911477,0.42535 2.900876,0.37477 0.839588,-0.0199 1.704987,-0.0144 2.511463,-0.27578 0.49597,-0.22629 0.97747,-0.53435 1.240918,-1.02916 0.144189,-0.32281 0.206786,-0.1374 -0.141773,-0.45778 -0.199483,-0.18945 -0.370997,-0.39882 -0.523615,-0.62738 -0.406518,-0.31458 -0.891047,-0.48644 -1.35246,-0.70388 -0.632763,-0.30169 -1.286127,-0.52112 -1.984027,-0.61579 -0.655312,-0.0508 -1.312749,-0.0219 -1.969655,-0.0288 -0.528536,0 -0.528536,-0.74746 0,-0.74746 z"
           id="path4451"
           style="opacity:0.97000002;fill:#c5cdc2;fill-opacity:0.98255914;fill-rule:evenodd;stroke:#080803;stroke-width:1;stroke-miterlimit:6.4000001;stroke-dasharray:none;stroke-dashoffset:0;stroke-opacity:0.17610061" />
      </g>
    </g>
    <g
       style="stroke:#080803;stroke-opacity:0.17610061"
       id="g4453"
       transform="matrix(2.5430271,0,0,1.7576922,-68.829001,-697.00766)">
      <path
         sodipodi:nodetypes="ccccccccccccscccccccccccccc"
         inkscape:connector-curvature="0"
         d="m 41.386944,429.499 c -0.535562,-0.0435 -0.709785,0.0342 -1.11543,0.47824 -0.632378,0.67274 -1.061589,1.52368 -1.42947,2.45929 -0.575569,1.72329 -1.08937,3.47719 -1.544577,5.26022 -0.561635,2.04231 -1.125499,4.06001 -1.536963,6.16452 -0.504265,3.05659 -0.942884,6.13031 -1.439891,9.18897 -0.567995,3.33853 -0.920831,6.73128 -1.187229,10.13076 -0.157058,2.25131 -0.420381,4.48648 -0.557312,6.74017 -0.06498,1.27616 -0.08071,2.55535 -0.08617,3.83391 0.05083,0.34926 -0.106247,0.88599 0.07774,1.19547 0.197624,0.0719 0.371276,0.0457 0.56968,-0.0118 0.607677,-0.19361 0.930543,-0.81965 1.303991,-1.42573 0.652325,-1.06884 1.186836,-2.24448 1.73454,-3.40532 0.206413,-0.43747 0.680678,-0.0566 0.474264,0.38081 l 0,0 c -0.559983,1.18678 -1.107509,2.3878 -1.774964,3.48001 -0.456463,0.7389 -0.881541,1.46377 -1.626476,1.68205 -0.431191,0.10768 -0.875075,0.12675 -1.174452,-0.36312 -0.174091,-0.48776 -0.14844,-1.00801 -0.14122,-1.53637 0.0056,-1.29639 0.02168,-2.59339 0.0879,-3.88731 0.137604,-2.25917 0.400234,-4.49994 0.558456,-6.75663 0.268684,-3.42521 0.624205,-6.84364 1.196445,-10.20751 0.498643,-3.06838 0.937956,-6.15206 1.445096,-9.21803 0.416532,-2.12563 0.979826,-4.15237 1.548199,-6.2144 0.464457,-1.81817 0.987938,-3.60733 1.577783,-5.3631 1.007635,-2.53058 3.812137,-4.67808 3.267263,-1.15493 z"
         id="path4455"
         style="opacity:0.97000002;fill:#c5cdc2;fill-opacity:0.98255914;fill-rule:evenodd;stroke:#080803;stroke-width:0.85096532;stroke-miterlimit:6.4000001;stroke-dasharray:none;stroke-dashoffset:0;stroke-opacity:0.17610061" />
      <path
         sodipodi:nodetypes="ccccccccacc"
         inkscape:connector-curvature="0"
         id="path4457"
         d="m 58.474801,455.1119 c 0.18663,5.03321 0.28378,10.07809 0.272728,15.1177 -0.06851,2.24916 -0.55533,4.99941 -2.122356,5.89465 -1.275744,0.28544 -1.274648,-2.22518 -1.435799,-3.51917 -0.327413,-2.762 -0.988529,-5.51246 -0.759744,-8.35455 1.119922,3.50499 0.862009,7.52389 1.691263,11.15179 4.061116,-3.39599 1.997242,-14.5515 1.917392,-19.68742 -0.224526,-4.05526 -0.795535,-8.04834 -1.044486,-12.10045 -0.400826,-4.17487 -0.510223,-9.01516 -2.488227,-12.01638 -0.577092,-0.87562 -1.557187,-2.79722 -2.353015,-1.16587 5.024706,-3.02181 5.93233,19.67859 6.322244,24.6797 z"
         style="opacity:0.97000002;fill:#c5cdc2;fill-opacity:0.98255914;fill-rule:evenodd;stroke:#080803;stroke-width:0.7995007;stroke-miterlimit:6.4000001;stroke-dasharray:none;stroke-dashoffset:0;stroke-opacity:0.17610061" />
      <g
         style="stroke:#080803;stroke-opacity:0.17610061"
         id="g4459">
        <path
           style="opacity:0.97000002;fill:#c5cdc2;fill-opacity:0.98255914;fill-rule:evenodd;stroke:#080803;stroke-width:1;stroke-miterlimit:6.4000001;stroke-dasharray:none;stroke-dashoffset:0;stroke-opacity:0.17610061"
           id="path4461"
           d="m 42.729954,438.32932 c -0.327031,2.95305 -1.145186,5.83886 -1.849891,8.71883 -0.254262,1.03933 -0.510447,2.07819 -0.762786,3.11799 -0.72802,2.9999 -0.948355,3.85829 -1.586937,6.90575 -0.72394,3.4548 -1.328163,6.92568 -1.902147,10.40777 -0.890735,5.55635 -1.194291,11.17599 -1.339173,16.79342 -0.0026,3.69089 -0.197637,7.39259 0.04685,11.07914 0.09937,1.06658 0.266679,1.99338 1.018277,2.77818 0.239015,0.19085 0.701996,0.48433 1.030434,0.44075 0.05351,-0.007 0.0927,-0.0553 0.139057,-0.083 0.660076,-0.78273 0.997758,-1.80839 1.379121,-2.74213 0.726165,-1.77798 0.505803,-1.23578 1.241503,-3.14774 1.616682,-4.17068 2.974657,-8.4327 4.274969,-12.71034 0.461047,-1.43134 0.886081,-2.87751 1.430753,-4.28055 0.09608,-0.24751 0.188267,-0.4979 0.311491,-0.73307 0.07099,-0.13549 0.11757,-0.34406 0.267841,-0.3726 0.250344,-0.0475 0.495204,0.12044 0.742805,0.18065 0.06032,0.2751 0.144962,0.54598 0.180967,0.82531 0.06787,0.5265 0.09201,2.01628 0.105156,2.47401 0.04929,1.71613 0.131457,3.42543 0.241416,5.13874 0.215281,3.04838 0.557498,6.08852 1.272831,9.06214 0.377978,1.32604 0.886287,2.46611 1.837614,3.46575 0.550968,0.53597 1.210879,0.8531 1.947587,1.03807 0.263165,0.0209 1.351328,0.30499 1.537717,0.0967 0.05518,-0.0617 0.06177,-0.15353 0.09265,-0.2303 0.06065,-0.23762 0.140268,-0.4712 0.181962,-0.71287 0.391167,-2.26731 0.385979,-4.85108 0.446463,-7.13585 0.0745,-2.81412 0.0895,-4.8987 0.124222,-7.73114 -0.01725,-6.53681 0.209436,-13.0819 -0.07125,-19.61604 -0.0453,-1.05449 -0.123113,-2.10733 -0.18467,-3.161 -0.421774,-4.82346 -0.720617,-9.663 -1.396865,-14.45951 -0.398424,-2.78447 -1.049338,-5.5216 -1.842044,-8.2177 -0.318622,-1.34645 -0.911827,-2.58222 -1.753437,-3.67373 -0.5269,-0.74095 -1.233899,-1.11455 -2.092592,-1.33586 -0.902285,-0.17817 -1.8261,-0.183 -2.74225,-0.19018 -0.374516,-0.0245 -0.745288,0.0227 -1.1153,0.0712 -0.524153,0.0679 -0.620216,-0.67334 -0.09606,-0.74127 l 0,0 c 0.403796,-0.0518 0.808904,-0.10131 1.217276,-0.0774 0.978213,0.008 1.964674,0.0155 2.926617,0.21478 1.051598,0.28171 1.836006,0.71039 2.495169,1.60348 0.893141,1.16759 1.536169,2.48147 1.87771,3.91818 0.80241,2.73113 1.461842,5.50364 1.865068,8.3242 0.678065,4.81682 0.98085,9.67632 1.402904,14.52023 0.06188,1.06099 0.140078,2.12116 0.185628,3.18298 0.28074,6.5444 0.05463,13.09971 0.07151,19.64678 -0.03473,2.83222 -0.04991,4.93264 -0.124592,7.74721 -0.02876,1.08412 -0.06041,2.16828 -0.110018,3.25164 -0.04806,1.04957 -0.12488,2.92001 -0.366777,4.07119 -0.06985,0.33243 -0.210663,0.64589 -0.315995,0.96883 -0.160417,0.16132 -0.289779,0.36109 -0.481251,0.48395 -0.383965,0.24638 -1.487678,-0.04 -1.91741,-0.0945 -0.871693,-0.22733 -1.65665,-0.60733 -2.30496,-1.24845 -1.051201,-1.11703 -1.601275,-2.32833 -2.021405,-3.80482 -0.7235,-3.01569 -1.075471,-6.09746 -1.291975,-9.18889 -0.171196,-2.67045 -0.234928,-5.34309 -0.362286,-8.01525 0.144662,-0.0668 0.274888,-0.20905 0.433986,-0.20037 0.09238,0.005 -0.133558,0.13234 -0.176217,0.21443 -0.116279,0.22376 -0.205489,0.4608 -0.296812,0.69586 -0.540192,1.39039 -0.960797,2.82391 -1.418021,4.24238 -1.30561,4.29485 -2.669337,8.57393 -4.292527,12.7614 -0.721516,1.87473 -0.535048,1.42083 -1.248082,3.16425 -0.369899,0.90442 -0.716743,2.03688 -1.379635,2.79337 -0.13366,0.15254 -0.316963,0.25311 -0.475445,0.37966 -0.160673,0.0345 -0.318058,0.0924 -0.482019,0.10358 -0.468965,0.0319 -1.111892,-0.37432 -1.446396,-0.66444 -0.904768,-0.97156 -1.086519,-1.93364 -1.220247,-3.24169 -0.243753,-3.70958 -0.05367,-7.43377 -0.04823,-11.14766 0.145964,-5.6517 0.452313,-11.30555 1.348879,-16.89572 0.576215,-3.49496 1.182763,-6.97867 1.909525,-10.44623 0.640312,-3.05508 0.861765,-3.91836 1.591015,-6.92333 0.252342,-1.03981 0.508531,-2.07869 0.762796,-3.11803 0.690807,-2.823 1.485472,-5.64986 1.82847,-8.54117 0,-0.52853 0.747463,-0.52853 0.747463,0 z"
           inkscape:connector-curvature="0" />
        <path
           style="opacity:0.97000002;fill:#c5cdc2;fill-opacity:0.98255914;fill-rule:evenodd;stroke:#080803;stroke-width:1;stroke-miterlimit:6.4000001;stroke-dasharray:none;stroke-dashoffset:0;stroke-opacity:0.17610061"
           id="path4463"
           d="m 47.636387,417.39608 c -0.527654,0.18106 -0.85175,0.56638 -1.148674,1.01418 -0.41983,0.67945 -0.668171,1.44475 -0.973146,2.17885 -0.27896,0.6852 -0.515956,1.38469 -0.660435,2.11055 -0.112097,0.68668 -0.12449,1.38377 -0.134118,2.07784 4.85e-4,0.53071 0.02449,1.08139 0.303848,1.54319 0.299303,0.4505 0.65895,0.82656 1.10886,1.12503 0.68694,0.43568 1.453137,0.73148 2.233066,0.95253 0.248179,0.0216 0.519379,0.179 0.774081,0.1576 0.115275,-0.01 0.416838,-0.35237 0.470598,-0.40387 0.786594,-0.77995 1.342776,-1.74116 1.880747,-2.69899 0.787738,-1.51344 1.316116,-3.14123 1.660165,-4.80775 0.222615,-1.2329 0.49098,-2.45886 0.661116,-3.70059 0.0269,-0.63317 0.198502,-1.29288 0.10538,-1.92697 -0.120795,-0.31931 -0.422302,-0.49417 -0.713599,-0.64348 -0.408692,-0.19915 -0.872448,-0.21395 -1.318524,-0.23441 -0.678774,-0.0146 -1.358247,-0.0239 -2.035772,0.022 -1.018394,0.11004 -1.726278,0.65389 -2.59171,1.18619 -0.451598,0.27461 -0.839953,-0.36405 -0.388355,-0.63865 l 0,0 c 0.976553,-0.58765 1.784068,-1.18394 2.93083,-1.29338 0.705667,-0.0455 1.412982,-0.0402 2.119845,-0.0228 0.556876,0.0264 1.127208,0.0623 1.633219,0.32036 0.51174,0.2767 0.968351,0.61935 1.106239,1.21541 0.07304,0.70409 -0.04679,1.41624 -0.107047,2.11748 -0.173352,1.25837 -0.442917,2.5012 -0.669716,3.75055 -0.362228,1.74108 -0.913216,3.44233 -1.740469,5.02227 -0.576861,1.02574 -1.177849,2.05141 -2.025427,2.88207 -0.730093,0.65621 -1.048717,0.67991 -1.956494,0.4158 -0.854912,-0.24493 -1.694218,-0.56991 -2.445894,-1.05152 -0.540668,-0.36883 -0.985394,-0.82113 -1.340177,-1.37412 -0.326298,-0.59293 -0.418247,-1.25024 -0.4022,-1.92436 0.01037,-0.73988 0.0253,-1.48294 0.148638,-2.21439 0.156137,-0.77335 0.404002,-1.52045 0.703083,-2.25045 0.323748,-0.77862 0.588351,-1.58989 1.041505,-2.30669 0.368799,-0.55028 0.79469,-1.03407 1.436262,-1.26802 0.472737,-0.23637 0.807012,0.43218 0.334275,0.66855 z"
           inkscape:connector-curvature="0" />
        <path
           style="opacity:0.97000002;fill:#c5cdc2;fill-opacity:0.98255914;fill-rule:evenodd;stroke:#080803;stroke-width:1;stroke-miterlimit:6.4000001;stroke-dasharray:none;stroke-dashoffset:0;stroke-opacity:0.17610061"
           id="path4465"
           d="m 35.201085,498.60021 c -0.461713,-0.004 -0.925534,-0.0289 -1.367396,0.1247 -0.370647,0.14069 -0.711988,0.40531 -0.968928,0.7053 -0.314488,0.4473 -0.689257,0.84415 -1.045473,1.25674 -0.183454,0.23179 -0.529532,0.44854 -0.601213,0.75176 -0.01989,0.043 0.06457,0.23162 0.07388,0.11583 0.328408,0.0565 0.667636,0.041 1.000022,0.0418 0.532642,-10e-4 1.065277,-0.004 1.597919,-0.005 0.794548,0.0379 1.560903,-0.18682 2.300591,-0.45292 0.526376,-0.18954 1.042567,-0.43038 1.496926,-0.7594 0.246016,-0.14042 0.445346,-0.32701 0.638192,-0.53068 0.364816,-0.38244 0.905666,0.13349 0.540849,0.51593 l 0,0 c -0.226692,0.2362 -0.462125,0.45771 -0.746651,0.62445 -0.516285,0.36064 -1.082793,0.64681 -1.678093,0.85368 -0.820756,0.29081 -1.669998,0.53657 -2.550226,0.4964 -0.533801,0.001 -1.067596,0.004 -1.601396,0.005 -0.426834,-10e-4 -0.868542,0.0263 -1.28162,-0.0977 -0.429041,-0.21565 -0.613128,-0.5962 -0.488143,-1.0755 0.163525,-0.37979 0.436503,-0.68852 0.73407,-0.9732 0.361196,-0.41552 0.735366,-0.81922 1.056013,-1.26864 0.361294,-0.38603 0.788143,-0.74068 1.294528,-0.91551 0.521757,-0.15942 1.052862,-0.1829 1.596146,-0.16056 0.528536,0 0.528536,0.74746 0,0.74746 z"
           inkscape:connector-curvature="0" />
        <path
           style="opacity:0.97000002;fill:#c5cdc2;fill-opacity:0.98255914;fill-rule:evenodd;stroke:#080803;stroke-width:1;stroke-miterlimit:6.4000001;stroke-dasharray:none;stroke-dashoffset:0;stroke-opacity:0.17610061"
           id="path4467"
           d="m 56.208722,494.8629 c 0.675709,0.004 1.35117,-0.0179 2.025393,0.0308 0.789943,0.0996 1.531991,0.3477 2.24852,0.68578 0.514645,0.22945 1.033343,0.44374 1.485512,0.78493 0.210302,0.21654 0.36176,0.47172 0.582807,0.6776 0.479399,0.3657 0.520431,0.69432 0.330355,1.26116 -0.327336,0.69461 -0.952564,1.12879 -1.626486,1.44752 -0.896977,0.32313 -1.867114,0.32276 -2.809092,0.34541 -1.068113,0.0534 -2.112872,-0.10225 -3.132934,-0.4059 -0.856231,-0.29009 -1.667835,-0.6856 -2.483318,-1.07118 -0.416512,-0.19876 -0.811533,-0.43446 -1.196585,-0.68765 -0.441416,-0.29069 -0.03032,-0.91495 0.411101,-0.62425 l 0,0 c 0.35544,0.23446 0.72023,0.45226 1.104988,0.63617 0.781513,0.36952 1.55865,0.74953 2.378012,1.03079 0.944137,0.28388 1.911477,0.42535 2.900876,0.37477 0.839588,-0.0199 1.704987,-0.0144 2.511463,-0.27578 0.49597,-0.22629 0.97747,-0.53435 1.240918,-1.02916 0.144189,-0.32281 0.206786,-0.1374 -0.141773,-0.45778 -0.199483,-0.18945 -0.370997,-0.39882 -0.523615,-0.62738 -0.406518,-0.31458 -0.891047,-0.48644 -1.35246,-0.70388 -0.632763,-0.30169 -1.286127,-0.52112 -1.984027,-0.61579 -0.655312,-0.0508 -1.312749,-0.0219 -1.969655,-0.0288 -0.528536,0 -0.528536,-0.74746 0,-0.74746 z"
           inkscape:connector-curvature="0" />
      </g>
    </g>
    <g
       style="stroke:#080803;stroke-opacity:0.17610061"
       transform="matrix(2.5430271,0,0,1.7576922,21.685387,-699.26041)"
       id="g4469">
      <path
         style="opacity:0.97000002;fill:#c5cdc2;fill-opacity:0.98255914;fill-rule:evenodd;stroke:#080803;stroke-width:0.85096532;stroke-miterlimit:6.4000001;stroke-dasharray:none;stroke-dashoffset:0;stroke-opacity:0.17610061"
         id="path4471"
         d="m 41.386944,429.499 c -0.535562,-0.0435 -0.709785,0.0342 -1.11543,0.47824 -0.632378,0.67274 -1.061589,1.52368 -1.42947,2.45929 -0.575569,1.72329 -1.08937,3.47719 -1.544577,5.26022 -0.561635,2.04231 -1.125499,4.06001 -1.536963,6.16452 -0.504265,3.05659 -0.942884,6.13031 -1.439891,9.18897 -0.567995,3.33853 -0.920831,6.73128 -1.187229,10.13076 -0.157058,2.25131 -0.420381,4.48648 -0.557312,6.74017 -0.06498,1.27616 -0.08071,2.55535 -0.08617,3.83391 0.05083,0.34926 -0.106247,0.88599 0.07774,1.19547 0.197624,0.0719 0.371276,0.0457 0.56968,-0.0118 0.607677,-0.19361 0.930543,-0.81965 1.303991,-1.42573 0.652325,-1.06884 1.186836,-2.24448 1.73454,-3.40532 0.206413,-0.43747 0.680678,-0.0566 0.474264,0.38081 l 0,0 c -0.559983,1.18678 -1.107509,2.3878 -1.774964,3.48001 -0.456463,0.7389 -0.881541,1.46377 -1.626476,1.68205 -0.431191,0.10768 -0.875075,0.12675 -1.174452,-0.36312 -0.174091,-0.48776 -0.14844,-1.00801 -0.14122,-1.53637 0.0056,-1.29639 0.02168,-2.59339 0.0879,-3.88731 0.137604,-2.25917 0.400234,-4.49994 0.558456,-6.75663 0.268684,-3.42521 0.624205,-6.84364 1.196445,-10.20751 0.498643,-3.06838 0.937956,-6.15206 1.445096,-9.21803 0.416532,-2.12563 0.979826,-4.15237 1.548199,-6.2144 0.464457,-1.81817 0.987938,-3.60733 1.577783,-5.3631 1.007635,-2.53058 3.812137,-4.67808 3.267263,-1.15493 z"
         inkscape:connector-curvature="0"
         sodipodi:nodetypes="ccccccccccccscccccccccccccc" />
      <path
         style="opacity:0.97000002;fill:#c5cdc2;fill-opacity:0.98255914;fill-rule:evenodd;stroke:#080803;stroke-width:0.7995007;stroke-miterlimit:6.4000001;stroke-dasharray:none;stroke-dashoffset:0;stroke-opacity:0.17610061"
         d="m 58.474801,455.1119 c 0.18663,5.03321 0.28378,10.07809 0.272728,15.1177 -0.06851,2.24916 -0.55533,4.99941 -2.122356,5.89465 -1.275744,0.28544 -1.274648,-2.22518 -1.435799,-3.51917 -0.327413,-2.762 -0.988529,-5.51246 -0.759744,-8.35455 1.119922,3.50499 0.862009,7.52389 1.691263,11.15179 4.061116,-3.39599 1.997242,-14.5515 1.917392,-19.68742 -0.224526,-4.05526 -0.795535,-8.04834 -1.044486,-12.10045 -0.400826,-4.17487 -0.510223,-9.01516 -2.488227,-12.01638 -0.577092,-0.87562 -1.557187,-2.79722 -2.353015,-1.16587 5.024706,-3.02181 5.93233,19.67859 6.322244,24.6797 z"
         id="path4473"
         inkscape:connector-curvature="0"
         sodipodi:nodetypes="ccccccccacc" />
      <g
         style="stroke:#080803;stroke-opacity:0.17610061"
         id="g4475">
        <path
           inkscape:connector-curvature="0"
           d="m 42.729954,438.32932 c -0.327031,2.95305 -1.145186,5.83886 -1.849891,8.71883 -0.254262,1.03933 -0.510447,2.07819 -0.762786,3.11799 -0.72802,2.9999 -0.948355,3.85829 -1.586937,6.90575 -0.72394,3.4548 -1.328163,6.92568 -1.902147,10.40777 -0.890735,5.55635 -1.194291,11.17599 -1.339173,16.79342 -0.0026,3.69089 -0.197637,7.39259 0.04685,11.07914 0.09937,1.06658 0.266679,1.99338 1.018277,2.77818 0.239015,0.19085 0.701996,0.48433 1.030434,0.44075 0.05351,-0.007 0.0927,-0.0553 0.139057,-0.083 0.660076,-0.78273 0.997758,-1.80839 1.379121,-2.74213 0.726165,-1.77798 0.505803,-1.23578 1.241503,-3.14774 1.616682,-4.17068 2.974657,-8.4327 4.274969,-12.71034 0.461047,-1.43134 0.886081,-2.87751 1.430753,-4.28055 0.09608,-0.24751 0.188267,-0.4979 0.311491,-0.73307 0.07099,-0.13549 0.11757,-0.34406 0.267841,-0.3726 0.250344,-0.0475 0.495204,0.12044 0.742805,0.18065 0.06032,0.2751 0.144962,0.54598 0.180967,0.82531 0.06787,0.5265 0.09201,2.01628 0.105156,2.47401 0.04929,1.71613 0.131457,3.42543 0.241416,5.13874 0.215281,3.04838 0.557498,6.08852 1.272831,9.06214 0.377978,1.32604 0.886287,2.46611 1.837614,3.46575 0.550968,0.53597 1.210879,0.8531 1.947587,1.03807 0.263165,0.0209 1.351328,0.30499 1.537717,0.0967 0.05518,-0.0617 0.06177,-0.15353 0.09265,-0.2303 0.06065,-0.23762 0.140268,-0.4712 0.181962,-0.71287 0.391167,-2.26731 0.385979,-4.85108 0.446463,-7.13585 0.0745,-2.81412 0.0895,-4.8987 0.124222,-7.73114 -0.01725,-6.53681 0.209436,-13.0819 -0.07125,-19.61604 -0.0453,-1.05449 -0.123113,-2.10733 -0.18467,-3.161 -0.421774,-4.82346 -0.720617,-9.663 -1.396865,-14.45951 -0.398424,-2.78447 -1.049338,-5.5216 -1.842044,-8.2177 -0.318622,-1.34645 -0.911827,-2.58222 -1.753437,-3.67373 -0.5269,-0.74095 -1.233899,-1.11455 -2.092592,-1.33586 -0.902285,-0.17817 -1.8261,-0.183 -2.74225,-0.19018 -0.374516,-0.0245 -0.745288,0.0227 -1.1153,0.0712 -0.524153,0.0679 -0.620216,-0.67334 -0.09606,-0.74127 l 0,0 c 0.403796,-0.0518 0.808904,-0.10131 1.217276,-0.0774 0.978213,0.008 1.964674,0.0155 2.926617,0.21478 1.051598,0.28171 1.836006,0.71039 2.495169,1.60348 0.893141,1.16759 1.536169,2.48147 1.87771,3.91818 0.80241,2.73113 1.461842,5.50364 1.865068,8.3242 0.678065,4.81682 0.98085,9.67632 1.402904,14.52023 0.06188,1.06099 0.140078,2.12116 0.185628,3.18298 0.28074,6.5444 0.05463,13.09971 0.07151,19.64678 -0.03473,2.83222 -0.04991,4.93264 -0.124592,7.74721 -0.02876,1.08412 -0.06041,2.16828 -0.110018,3.25164 -0.04806,1.04957 -0.12488,2.92001 -0.366777,4.07119 -0.06985,0.33243 -0.210663,0.64589 -0.315995,0.96883 -0.160417,0.16132 -0.289779,0.36109 -0.481251,0.48395 -0.383965,0.24638 -1.487678,-0.04 -1.91741,-0.0945 -0.871693,-0.22733 -1.65665,-0.60733 -2.30496,-1.24845 -1.051201,-1.11703 -1.601275,-2.32833 -2.021405,-3.80482 -0.7235,-3.01569 -1.075471,-6.09746 -1.291975,-9.18889 -0.171196,-2.67045 -0.234928,-5.34309 -0.362286,-8.01525 0.144662,-0.0668 0.274888,-0.20905 0.433986,-0.20037 0.09238,0.005 -0.133558,0.13234 -0.176217,0.21443 -0.116279,0.22376 -0.205489,0.4608 -0.296812,0.69586 -0.540192,1.39039 -0.960797,2.82391 -1.418021,4.24238 -1.30561,4.29485 -2.669337,8.57393 -4.292527,12.7614 -0.721516,1.87473 -0.535048,1.42083 -1.248082,3.16425 -0.369899,0.90442 -0.716743,2.03688 -1.379635,2.79337 -0.13366,0.15254 -0.316963,0.25311 -0.475445,0.37966 -0.160673,0.0345 -0.318058,0.0924 -0.482019,0.10358 -0.468965,0.0319 -1.111892,-0.37432 -1.446396,-0.66444 -0.904768,-0.97156 -1.086519,-1.93364 -1.220247,-3.24169 -0.243753,-3.70958 -0.05367,-7.43377 -0.04823,-11.14766 0.145964,-5.6517 0.452313,-11.30555 1.348879,-16.89572 0.576215,-3.49496 1.182763,-6.97867 1.909525,-10.44623 0.640312,-3.05508 0.861765,-3.91836 1.591015,-6.92333 0.252342,-1.03981 0.508531,-2.07869 0.762796,-3.11803 0.690807,-2.823 1.485472,-5.64986 1.82847,-8.54117 0,-0.52853 0.747463,-0.52853 0.747463,0 z"
           id="path4477"
           style="opacity:0.97000002;fill:#c5cdc2;fill-opacity:0.98255914;fill-rule:evenodd;stroke:#080803;stroke-width:1;stroke-miterlimit:6.4000001;stroke-dasharray:none;stroke-dashoffset:0;stroke-opacity:0.17610061" />
        <path
           inkscape:connector-curvature="0"
           d="m 47.636387,417.39608 c -0.527654,0.18106 -0.85175,0.56638 -1.148674,1.01418 -0.41983,0.67945 -0.668171,1.44475 -0.973146,2.17885 -0.27896,0.6852 -0.515956,1.38469 -0.660435,2.11055 -0.112097,0.68668 -0.12449,1.38377 -0.134118,2.07784 4.85e-4,0.53071 0.02449,1.08139 0.303848,1.54319 0.299303,0.4505 0.65895,0.82656 1.10886,1.12503 0.68694,0.43568 1.453137,0.73148 2.233066,0.95253 0.248179,0.0216 0.519379,0.179 0.774081,0.1576 0.115275,-0.01 0.416838,-0.35237 0.470598,-0.40387 0.786594,-0.77995 1.342776,-1.74116 1.880747,-2.69899 0.787738,-1.51344 1.316116,-3.14123 1.660165,-4.80775 0.222615,-1.2329 0.49098,-2.45886 0.661116,-3.70059 0.0269,-0.63317 0.198502,-1.29288 0.10538,-1.92697 -0.120795,-0.31931 -0.422302,-0.49417 -0.713599,-0.64348 -0.408692,-0.19915 -0.872448,-0.21395 -1.318524,-0.23441 -0.678774,-0.0146 -1.358247,-0.0239 -2.035772,0.022 -1.018394,0.11004 -1.726278,0.65389 -2.59171,1.18619 -0.451598,0.27461 -0.839953,-0.36405 -0.388355,-0.63865 l 0,0 c 0.976553,-0.58765 1.784068,-1.18394 2.93083,-1.29338 0.705667,-0.0455 1.412982,-0.0402 2.119845,-0.0228 0.556876,0.0264 1.127208,0.0623 1.633219,0.32036 0.51174,0.2767 0.968351,0.61935 1.106239,1.21541 0.07304,0.70409 -0.04679,1.41624 -0.107047,2.11748 -0.173352,1.25837 -0.442917,2.5012 -0.669716,3.75055 -0.362228,1.74108 -0.913216,3.44233 -1.740469,5.02227 -0.576861,1.02574 -1.177849,2.05141 -2.025427,2.88207 -0.730093,0.65621 -1.048717,0.67991 -1.956494,0.4158 -0.854912,-0.24493 -1.694218,-0.56991 -2.445894,-1.05152 -0.540668,-0.36883 -0.985394,-0.82113 -1.340177,-1.37412 -0.326298,-0.59293 -0.418247,-1.25024 -0.4022,-1.92436 0.01037,-0.73988 0.0253,-1.48294 0.148638,-2.21439 0.156137,-0.77335 0.404002,-1.52045 0.703083,-2.25045 0.323748,-0.77862 0.588351,-1.58989 1.041505,-2.30669 0.368799,-0.55028 0.79469,-1.03407 1.436262,-1.26802 0.472737,-0.23637 0.807012,0.43218 0.334275,0.66855 z"
           id="path4479"
           style="opacity:0.97000002;fill:#c5cdc2;fill-opacity:0.98255914;fill-rule:evenodd;stroke:#080803;stroke-width:1;stroke-miterlimit:6.4000001;stroke-dasharray:none;stroke-dashoffset:0;stroke-opacity:0.17610061" />
        <path
           inkscape:connector-curvature="0"
           d="m 35.201085,498.60021 c -0.461713,-0.004 -0.925534,-0.0289 -1.367396,0.1247 -0.370647,0.14069 -0.711988,0.40531 -0.968928,0.7053 -0.314488,0.4473 -0.689257,0.84415 -1.045473,1.25674 -0.183454,0.23179 -0.529532,0.44854 -0.601213,0.75176 -0.01989,0.043 0.06457,0.23162 0.07388,0.11583 0.328408,0.0565 0.667636,0.041 1.000022,0.0418 0.532642,-10e-4 1.065277,-0.004 1.597919,-0.005 0.794548,0.0379 1.560903,-0.18682 2.300591,-0.45292 0.526376,-0.18954 1.042567,-0.43038 1.496926,-0.7594 0.246016,-0.14042 0.445346,-0.32701 0.638192,-0.53068 0.364816,-0.38244 0.905666,0.13349 0.540849,0.51593 l 0,0 c -0.226692,0.2362 -0.462125,0.45771 -0.746651,0.62445 -0.516285,0.36064 -1.082793,0.64681 -1.678093,0.85368 -0.820756,0.29081 -1.669998,0.53657 -2.550226,0.4964 -0.533801,0.001 -1.067596,0.004 -1.601396,0.005 -0.426834,-10e-4 -0.868542,0.0263 -1.28162,-0.0977 -0.429041,-0.21565 -0.613128,-0.5962 -0.488143,-1.0755 0.163525,-0.37979 0.436503,-0.68852 0.73407,-0.9732 0.361196,-0.41552 0.735366,-0.81922 1.056013,-1.26864 0.361294,-0.38603 0.788143,-0.74068 1.294528,-0.91551 0.521757,-0.15942 1.052862,-0.1829 1.596146,-0.16056 0.528536,0 0.528536,0.74746 0,0.74746 z"
           id="path4481"
           style="opacity:0.97000002;fill:#c5cdc2;fill-opacity:0.98255914;fill-rule:evenodd;stroke:#080803;stroke-width:1;stroke-miterlimit:6.4000001;stroke-dasharray:none;stroke-dashoffset:0;stroke-opacity:0.17610061" />
        <path
           inkscape:connector-curvature="0"
           d="m 56.208722,494.8629 c 0.675709,0.004 1.35117,-0.0179 2.025393,0.0308 0.789943,0.0996 1.531991,0.3477 2.24852,0.68578 0.514645,0.22945 1.033343,0.44374 1.485512,0.78493 0.210302,0.21654 0.36176,0.47172 0.582807,0.6776 0.479399,0.3657 0.520431,0.69432 0.330355,1.26116 -0.327336,0.69461 -0.952564,1.12879 -1.626486,1.44752 -0.896977,0.32313 -1.867114,0.32276 -2.809092,0.34541 -1.068113,0.0534 -2.112872,-0.10225 -3.132934,-0.4059 -0.856231,-0.29009 -1.667835,-0.6856 -2.483318,-1.07118 -0.416512,-0.19876 -0.811533,-0.43446 -1.196585,-0.68765 -0.441416,-0.29069 -0.03032,-0.91495 0.411101,-0.62425 l 0,0 c 0.35544,0.23446 0.72023,0.45226 1.104988,0.63617 0.781513,0.36952 1.55865,0.74953 2.378012,1.03079 0.944137,0.28388 1.911477,0.42535 2.900876,0.37477 0.839588,-0.0199 1.704987,-0.0144 2.511463,-0.27578 0.49597,-0.22629 0.97747,-0.53435 1.240918,-1.02916 0.144189,-0.32281 0.206786,-0.1374 -0.141773,-0.45778 -0.199483,-0.18945 -0.370997,-0.39882 -0.523615,-0.62738 -0.406518,-0.31458 -0.891047,-0.48644 -1.35246,-0.70388 -0.632763,-0.30169 -1.286127,-0.52112 -1.984027,-0.61579 -0.655312,-0.0508 -1.312749,-0.0219 -1.969655,-0.0288 -0.528536,0 -0.528536,-0.74746 0,-0.74746 z"
           id="path4483"
           style="opacity:0.97000002;fill:#c5cdc2;fill-opacity:0.98255914;fill-rule:evenodd;stroke:#080803;stroke-width:1;stroke-miterlimit:6.4000001;stroke-dasharray:none;stroke-dashoffset:0;stroke-opacity:0.17610061" />
      </g>
    </g>
    <path
       inkscape:connector-curvature="0"
       id="path4621"
       d="m 88.370387,189.51148 0,-160.62302 0,0"
       style="fill:none;fill-rule:evenodd;stroke:#080803;stroke-width:0.83739734px;stroke-linecap:butt;stroke-linejoin:miter;stroke-opacity:0.17610061" />
    <path
       inkscape:connector-curvature="0"
       id="path4623"
       d="m 183.17137,187.17867 0,-160.18503 0,0"
       style="fill:none;fill-rule:evenodd;stroke:#080803;stroke-width:0.83625484px;stroke-linecap:butt;stroke-linejoin:miter;stroke-opacity:0.17610061" />
    <path
       inkscape:connector-curvature="0"
       id="path4625"
       d="m 270.4291,186.0523 0,-160.32588 0,0"
       style="fill:none;fill-rule:evenodd;stroke:#080803;stroke-width:0.83662242px;stroke-linecap:butt;stroke-linejoin:miter;stroke-opacity:0.17610061" />
    <path
       inkscape:connector-curvature="0"
       id="path4388"
       d="m 5.3514445,24.74194 267.7486855,0 0,0 0,0"
       style="fill:none;fill-rule:evenodd;stroke:#080803;stroke-width:1.03217793px;stroke-linecap:butt;stroke-linejoin:miter;stroke-opacity:0.17610061" />
  </g>
</svg>
